ply
format ascii 1.0
comment meshmixer generated
element vertex 40
property float x
property float y
property float z
property float nx
property float ny
property float nz
property uchar red
property uchar green
property uchar blue
property uchar alpha
element face 76
property list uchar int vertex_indices
end_header
-5702.432129 3586.866943 2072 0 1 0 255 255 255 255
-5702.432129 3586.866943 978 0 1 0 255 255 255 255
-6186.432129 3586.866943 2072 0 1 0 255 255 255 255
-6186.432129 3586.866943 978 0 1 0 255 255 255 255
-6186.432129 3574.866943 2072 0 -1 0 255 255 255 255
-6186.432129 3574.866943 978 0 -1 0 255 255 255 255
-5702.432129 3574.866943 2072 0 -1 0 255 255 255 255
-5702.432129 3574.866943 978 0 -1 0 255 255 255 255
-6186.432129 3558.866943 2072 0 0 -1 255 255 255 255
-5702.432129 3558.866943 2072 0 0 -1 255 255 255 255
-5702.432129 3602.866943 2072 0 0 -1 255 255 255 255
-6186.432129 3602.866943 2072 0 0 -1 255 255 255 255
-5702.432129 3558.866943 978 -1 0 0 255 255 255 255
-6186.432129 3602.866943 978 0 0 1 255 255 255 255
-5702.432129 3602.866943 978 0 0 1 255 255 255 255
-6186.432129 3558.866943 978 0 0 1 255 255 255 255
-6217.432129 3602.866943 2103 0 1 0 255 255 255 255
-5671.432129 3602.866943 2103 0 1 0 255 255 255 255
-5671.432129 3602.866943 947 0 1 0 255 255 255 255
-6217.432129 3602.866943 947 0 1 0 255 255 255 255
-5658.432129 3558.866943 2116 0 -1 0 255 255 255 255
-6230.432129 3558.866943 2116 0 -1 0 255 255 255 255
-6230.432129 3558.866943 934 0 -1 0 255 255 255 255
-5658.432129 3558.866943 934 0 -1 0 255 255 255 255
-6230.432129 3539.866943 2116 0 0 -1 255 255 255 255
-5658.432129 3539.866943 2116 0 0 -1 255 255 255 255
-5658.432129 3539.866943 934 -1 0 0 255 255 255 255
-5639.432129 3539.866943 2135 0 -1 0 255 255 255 255
-6249.432129 3539.866943 2135 0 -1 0 255 255 255 255
-6249.432129 3539.866943 915 0 -1 0 255 255 255 255
-6230.432129 3539.866943 934 0 -1 0 255 255 255 255
-5639.432129 3539.866943 915 0 -1 0 255 255 255 255
-6249.432129 3663.866943 2135 -1 0 0 255 255 255 255
-6249.432129 3663.866943 915 -1 0 0 255 255 255 255
-5639.432129 3663.866943 2135 0 0 1 255 255 255 255
-5639.432129 3663.866943 915 0 0 -1 255 255 255 255
-5671.432129 3663.866943 2103 0 0 -1 255 255 255 255
-6217.432129 3663.866943 2103 0 0 -1 255 255 255 255
-5671.432129 3663.866943 947 -1 0 0 255 255 255 255
-6217.432129 3663.866943 947 1 0 0 255 255 255 255
3 0 1 2 
3 2 1 3 
3 4 5 6 
3 6 5 7 
3 4 6 8 
3 8 6 9 
3 0 2 10 
3 10 2 11 
3 6 7 9 
3 9 7 12 
3 3 1 13 
3 13 1 14 
3 7 5 12 
3 12 5 15 
3 5 4 15 
3 15 4 8 
3 2 3 11 
3 11 3 13 
3 11 16 10 
3 10 16 17 
3 10 17 18 
3 11 13 16 
3 16 13 19 
3 19 13 14 
3 19 14 18 
3 18 14 10 
3 12 20 9 
3 9 20 21 
3 9 21 8 
3 8 21 22 
3 8 22 15 
3 15 22 12 
3 12 22 23 
3 12 23 20 
3 1 0 14 
3 14 0 10 
3 21 20 24 
3 24 20 25 
3 20 23 25 
3 25 23 26 
3 26 27 25 
3 25 27 28 
3 25 28 24 
3 24 28 29 
3 24 29 30 
3 30 29 26 
3 26 29 31 
3 26 31 27 
3 22 21 30 
3 30 21 24 
3 23 22 26 
3 26 22 30 
3 32 33 28 
3 28 33 29 
3 34 32 27 
3 27 32 28 
3 33 35 29 
3 29 35 31 
3 17 16 36 
3 36 16 37 
3 18 17 38 
3 38 17 36 
3 16 19 37 
3 37 19 39 
3 37 32 36 
3 36 32 34 
3 36 34 35 
3 37 39 32 
3 32 39 33 
3 33 39 38 
3 33 38 35 
3 35 38 36 
3 19 18 39 
3 39 18 38 
3 35 34 31 
3 31 34 27 
