ply
format ascii 1.0
comment meshmixer generated
element vertex 36
property float x
property float y
property float z
property float nx
property float ny
property float nz
property uchar red
property uchar green
property uchar blue
property uchar alpha
element face 68
property list uchar int vertex_indices
end_header
-3913.432373 12084.86719 0 -1 0 0 255 255 255 255
-3913.432373 12084.86719 2108 -1 0 0 255 255 255 255
-3913.432373 12109.86719 0 -1 0 0 255 255 255 255
-3913.432373 12109.86719 2108 -1 0 0 255 255 255 255
-3837.432373 12084.86719 0 0 0 -1 255 255 255 255
-3837.432373 12109.86719 0 0 0 -1 255 255 255 255
-3837.432373 12084.86719 2032 1 0 0 255 255 255 255
-3837.432373 12109.86719 2032 1 0 0 255 255 255 255
-3075.432373 12084.86719 2032 0 0 -1 255 255 255 255
-3075.432373 12109.86719 2032 0 0 -1 255 255 255 255
-3075.432373 12084.86719 0 -1 0 0 255 255 255 255
-3075.432373 12109.86719 0 -1 0 0 255 255 255 255
-2999.432373 12109.86719 2108 0 1 0 255 255 255 255
-2999.432373 12109.86719 0 0 1 0 255 255 255 255
-2999.432373 12084.86719 0 0 0 -1 255 255 255 255
-2999.432373 12084.86719 2108 0 0 1 255 255 255 255
-2999.432373 12334.86719 0 1 0 0 255 255 255 255
-2999.432373 12334.86719 2108 1 0 0 255 255 255 255
-2999.432373 12309.86719 0 1 0 0 255 255 255 255
-2999.432373 12309.86719 2108 1 0 0 255 255 255 255
-3075.432373 12334.86719 0 0 0 -1 255 255 255 255
-3075.432373 12309.86719 0 0 0 -1 255 255 255 255
-3075.432373 12334.86719 2032 -1 0 0 255 255 255 255
-3075.432373 12309.86719 2032 -1 0 0 255 255 255 255
-3837.432373 12334.86719 2032 0 0 -1 255 255 255 255
-3837.432373 12309.86719 2032 0 0 -1 255 255 255 255
-3837.432373 12334.86719 0 1 0 0 255 255 255 255
-3837.432373 12309.86719 0 1 0 0 255 255 255 255
-3913.432373 12309.86719 0 0 -1 0 255 255 255 255
-3913.432373 12309.86719 2108 0 -1 0 255 255 255 255
-3913.432373 12334.86719 0 0 0 -1 255 255 255 255
-3913.432373 12334.86719 2108 0 0 1 255 255 255 255
-3837.432373 12258.86719 0 -1 0 0 255 255 255 255
-3837.432373 12258.86719 2032 -1 0 0 255 255 255 255
-3075.432373 12258.86719 0 0 0 -1 255 255 255 255
-3075.432373 12258.86719 2032 0 0 1 255 255 255 255
3 0 1 2 
3 2 1 3 
3 4 0 5 
3 5 0 2 
3 6 4 7 
3 7 4 5 
3 8 6 9 
3 9 6 7 
3 10 8 11 
3 11 8 9 
3 3 12 9 
3 9 12 13 
3 9 13 11 
3 9 7 3 
3 3 7 2 
3 2 7 5 
3 14 10 13 
3 13 10 11 
3 1 15 3 
3 3 15 12 
3 14 15 8 
3 8 15 1 
3 8 1 6 
3 6 1 0 
3 6 0 4 
3 8 10 14 
3 15 14 12 
3 12 14 13 
3 16 17 18 
3 18 17 19 
3 20 16 21 
3 21 16 18 
3 22 20 23 
3 23 20 21 
3 24 22 25 
3 25 22 23 
3 26 24 27 
3 27 24 25 
3 28 25 29 
3 29 25 23 
3 29 23 19 
3 19 23 18 
3 18 23 21 
3 28 27 25 
3 30 26 28 
3 28 26 27 
3 17 31 19 
3 19 31 29 
3 17 22 31 
3 31 22 24 
3 31 24 30 
3 30 24 26 
3 17 16 22 
3 22 16 20 
3 31 30 29 
3 29 30 28 
3 32 33 27 
3 27 33 25 
3 23 21 25 
3 25 21 27 
3 34 32 21 
3 21 32 27 
3 33 35 25 
3 25 35 23 
3 33 32 35 
3 35 32 34 
3 35 34 23 
3 23 34 21 
