ply
format ascii 1.0
comment meshmixer generated
element vertex 24
property float x
property float y
property float z
property float nx
property float ny
property float nz
property uchar red
property uchar green
property uchar blue
property uchar alpha
element face 44
property list uchar int vertex_indices
end_header
-449.4322815 12259.86719 2770 0 -1 0 255 255 255 255
-449.4322815 12259.86719 2920 0 -1 0 255 255 255 255
-511.4322815 12259.86719 2770 0 -1 0 255 255 255 255
-511.4322815 12259.86719 2920 0 -1 0 255 255 255 255
-511.4322815 7407.866699 2770 1 0 0 255 255 255 255
-511.4322815 7407.866699 2920 1 0 0 255 255 255 255
-1437.432251 7407.866699 2770 0 -1 0 255 255 255 255
-1437.432251 7407.866699 2920 0 -1 0 255 255 255 255
-1437.432251 5499.866699 2770 1 0 0 255 255 255 255
-1437.432251 5499.866699 2920 1 0 0 255 255 255 255
-4829.432129 5499.866699 2770 0 -1 0 255 255 255 255
-4829.432129 5499.866699 2920 0 -1 0 255 255 255 255
-4829.432129 3551.866943 2770 1 0 0 255 255 255 255
-4829.432129 3551.866943 2920 1 0 0 255 255 255 255
-10341.43262 3551.866943 2770 0 -1 0 255 255 255 255
-10341.43262 3551.866943 2920 0 -1 0 255 255 255 255
-10341.43262 13031.86719 2770 -1 0 0 255 255 255 255
-10341.43262 13031.86719 2920 -1 0 0 255 255 255 255
-8369.432617 13031.86719 2770 0 1 0 255 255 255 255
-8369.432617 13031.86719 2920 0 1 0 255 255 255 255
-8369.432617 14769.86719 2920 0 0 1 255 255 255 255
-449.4322815 14769.86719 2920 0 0 1 255 255 255 255
-449.4322815 14769.86719 2770 1 0 0 255 255 255 255
-8369.432617 14769.86719 2770 0 0 -1 255 255 255 255
3 0 1 2 
3 2 1 3 
3 2 3 4 
3 4 3 5 
3 4 5 6 
3 6 5 7 
3 6 7 8 
3 8 7 9 
3 8 9 10 
3 10 9 11 
3 10 11 12 
3 12 11 13 
3 12 13 14 
3 14 13 15 
3 14 15 16 
3 16 15 17 
3 16 17 18 
3 18 17 19 
3 20 19 21 
3 21 19 3 
3 21 3 1 
3 17 15 19 
3 19 15 11 
3 19 11 7 
3 7 11 9 
3 15 13 11 
3 5 3 7 
3 7 3 19 
3 22 21 0 
3 0 21 1 
3 0 2 22 
3 22 2 18 
3 22 18 23 
3 4 6 2 
3 2 6 18 
3 8 10 6 
3 6 10 18 
3 12 14 10 
3 10 14 18 
3 14 16 18 
3 18 19 23 
3 23 19 20 
3 23 20 22 
3 22 20 21 
