ply
format ascii 1.0
comment meshmixer generated
element vertex 16
property float x
property float y
property float z
property float nx
property float ny
property float nz
property uchar red
property uchar green
property uchar blue
property uchar alpha
element face 32
property list uchar int vertex_indices
end_header
-5237.432129 14657.86719 2770 1 0 0 255 255 255 255
-5237.432129 14657.86719 -150 1 0 0 255 255 255 255
-5237.432129 14781.86719 2770 1 0 0 255 255 255 255
-5237.432129 14781.86719 -150 1 0 0 255 255 255 255
-6447.432129 14657.86719 2135 0 0 -1 255 255 255 255
-7057.432129 14657.86719 2135 0 0 -1 255 255 255 255
-6447.432129 14781.86719 2135 0 0 -1 255 255 255 255
-7057.432129 14781.86719 2135 0 0 -1 255 255 255 255
-6447.432129 14781.86719 915 0 1 0 255 255 255 255
-8257.432617 14781.86719 -150 0 1 0 255 255 255 255
-7057.432129 14781.86719 915 0 1 0 255 255 255 255
-8257.432617 14781.86719 2770 0 1 0 255 255 255 255
-6447.432129 14657.86719 915 -1 0 0 255 255 255 255
-7057.432129 14657.86719 915 1 0 0 255 255 255 255
-8257.432617 14657.86719 2770 0 -1 0 255 255 255 255
-8257.432617 14657.86719 -150 0 -1 0 255 255 255 255
3 0 1 2 
3 2 1 3 
3 4 5 6 
3 6 5 7 
3 8 9 10 
3 10 9 11 
3 10 11 7 
3 7 11 6 
3 6 11 2 
3 6 2 8 
3 8 2 3 
3 8 3 9 
3 12 4 8 
3 8 4 6 
3 5 13 7 
3 7 13 10 
3 5 14 13 
3 13 14 15 
3 13 15 12 
3 12 15 1 
3 12 1 0 
3 5 4 14 
3 14 4 0 
3 0 4 12 
3 13 12 10 
3 10 12 8 
3 1 15 3 
3 3 15 9 
3 14 0 11 
3 11 0 2 
3 15 14 9 
3 9 14 11 
