ply
format ascii 1.0
comment meshmixer generated
element vertex 16
property float x
property float y
property float z
property float nx
property float ny
property float nz
property uchar red
property uchar green
property uchar blue
property uchar alpha
element face 32
property list uchar int vertex_indices
end_header
-8257.432617 12390.86719 0 0 -1 0 255 255 255 255
-8257.432617 12390.86719 2032 0 -1 0 255 255 255 255
-8381.432617 12390.86719 0 0 -1 0 255 255 255 255
-8381.432617 12390.86719 2032 0 -1 0 255 255 255 255
-8257.432617 11628.86719 0 0 0 1 255 255 255 255
-8381.432617 11628.86719 0 0 0 1 255 255 255 255
-8257.432617 11571.86719 -150 1 0 0 255 255 255 255
-8257.432617 12909.86719 -150 1 0 0 255 255 255 255
-8257.432617 12909.86719 2770 1 0 0 255 255 255 255
-8257.432617 11571.86719 2770 1 0 0 255 255 255 255
-8257.432617 11628.86719 2032 1 0 0 255 255 255 255
-8381.432617 11571.86719 2770 0 0 1 255 255 255 255
-8381.432617 12909.86719 2770 0 0 1 255 255 255 255
-8381.432617 11628.86719 2032 -1 0 0 255 255 255 255
-8381.432617 11571.86719 -150 -1 0 0 255 255 255 255
-8381.432617 12909.86719 -150 -1 0 0 255 255 255 255
3 0 1 2 
3 2 1 3 
3 0 2 4 
3 4 2 5 
3 4 6 0 
3 0 6 7 
3 0 7 1 
3 1 7 8 
3 1 8 9 
3 4 10 6 
3 6 10 9 
3 9 10 1 
3 11 9 12 
3 12 9 8 
3 13 5 14 
3 14 5 2 
3 14 2 15 
3 15 2 3 
3 15 3 12 
3 12 3 11 
3 11 3 13 
3 11 13 14 
3 15 7 14 
3 14 7 6 
3 11 14 9 
3 9 14 6 
3 10 13 1 
3 1 13 3 
3 5 13 4 
3 4 13 10 
3 15 12 7 
3 7 12 8 
