ply
format ascii 1.0
comment meshmixer generated
element vertex 10
property float x
property float y
property float z
property float nx
property float ny
property float nz
property uchar red
property uchar green
property uchar blue
property uchar alpha
element face 16
property list uchar int vertex_indices
end_header
-499.4322815 14657.86719 -190 1 0 0 255 255 255 255
-499.4322815 14657.86719 -40 1 0 0 255 255 255 255
-499.4322815 12309.86719 -190 1 0 0 255 255 255 255
-499.4322815 12309.86719 -40 1 0 0 255 255 255 255
-1779.432251 12309.86719 -190 0 -1 0 255 255 255 255
-1779.432251 12309.86719 -40 0 -1 0 255 255 255 255
-5237.432129 12309.86719 -190 0 -1 0 255 255 255 255
-5237.432129 12309.86719 -40 0 -1 0 255 255 255 255
-5237.432129 14657.86719 -190 0 0 -1 255 255 255 255
-5237.432129 14657.86719 -40 -1 0 0 255 255 255 255
3 0 1 2 
3 2 1 3 
3 4 5 6 
3 6 5 7 
3 2 4 0 
3 0 4 8 
3 8 4 6 
3 2 3 4 
3 4 3 5 
3 6 7 8 
3 8 7 9 
3 3 1 5 
3 5 1 9 
3 5 9 7 
3 8 9 0 
3 0 9 1 
