ply
format ascii 1.0
comment meshmixer generated
element vertex 36
property float x
property float y
property float z
property float nx
property float ny
property float nz
property uchar red
property uchar green
property uchar blue
property uchar alpha
element face 68
property list uchar int vertex_indices
end_header
-8406.432617 12466.86719 0 0 1 0 255 255 255 255
-8406.432617 12466.86719 2108 0 1 0 255 255 255 255
-8381.432617 12466.86719 0 0 1 0 255 255 255 255
-8381.432617 12466.86719 2108 0 1 0 255 255 255 255
-8406.432617 12390.86719 0 0 0 -1 255 255 255 255
-8381.432617 12390.86719 0 0 0 -1 255 255 255 255
-8406.432617 12390.86719 2032 0 -1 0 255 255 255 255
-8381.432617 12390.86719 2032 0 -1 0 255 255 255 255
-8406.432617 11628.86719 2032 0 0 -1 255 255 255 255
-8381.432617 11628.86719 2032 0 0 -1 255 255 255 255
-8406.432617 11628.86719 0 0 1 0 255 255 255 255
-8381.432617 11628.86719 0 0 1 0 255 255 255 255
-8381.432617 11552.86719 0 1 0 0 255 255 255 255
-8381.432617 11552.86719 2108 1 0 0 255 255 255 255
-8406.432617 11552.86719 0 0 0 -1 255 255 255 255
-8406.432617 11552.86719 2108 0 0 1 255 255 255 255
-8232.432617 11552.86719 0 0 -1 0 255 255 255 255
-8232.432617 11552.86719 2108 0 -1 0 255 255 255 255
-8257.432617 11552.86719 0 0 -1 0 255 255 255 255
-8257.432617 11552.86719 2108 0 -1 0 255 255 255 255
-8232.432617 11628.86719 0 0 0 -1 255 255 255 255
-8257.432617 11628.86719 0 0 0 -1 255 255 255 255
-8232.432617 11628.86719 2032 0 1 0 255 255 255 255
-8257.432617 11628.86719 2032 0 1 0 255 255 255 255
-8232.432617 12390.86719 2032 0 0 -1 255 255 255 255
-8257.432617 12390.86719 2032 0 0 -1 255 255 255 255
-8232.432617 12390.86719 0 0 -1 0 255 255 255 255
-8257.432617 12390.86719 0 0 -1 0 255 255 255 255
-8257.432617 12466.86719 2108 -1 0 0 255 255 255 255
-8257.432617 12466.86719 0 -1 0 0 255 255 255 255
-8232.432617 12466.86719 0 0 0 -1 255 255 255 255
-8232.432617 12466.86719 2108 0 0 1 255 255 255 255
-8308.432617 12390.86719 0 0 1 0 255 255 255 255
-8308.432617 12390.86719 2032 0 1 0 255 255 255 255
-8308.432617 11628.86719 0 0 0 -1 255 255 255 255
-8308.432617 11628.86719 2032 0 0 1 255 255 255 255
3 0 1 2 
3 2 1 3 
3 0 2 4 
3 4 2 5 
3 6 4 7 
3 7 4 5 
3 6 7 8 
3 8 7 9 
3 10 8 11 
3 11 8 9 
3 12 9 13 
3 13 9 7 
3 13 7 3 
3 3 7 2 
3 2 7 5 
3 12 11 9 
3 10 11 14 
3 14 11 12 
3 15 13 1 
3 1 13 3 
3 1 6 15 
3 15 6 8 
3 15 8 14 
3 14 8 10 
3 1 0 6 
3 6 0 4 
3 15 14 13 
3 13 14 12 
3 16 17 18 
3 18 17 19 
3 16 18 20 
3 20 18 21 
3 22 20 23 
3 23 20 21 
3 22 23 24 
3 24 23 25 
3 26 24 27 
3 27 24 25 
3 19 28 25 
3 25 28 29 
3 25 29 27 
3 25 23 19 
3 19 23 18 
3 18 23 21 
3 26 27 30 
3 30 27 29 
3 31 28 17 
3 17 28 19 
3 30 31 24 
3 24 31 17 
3 24 17 22 
3 22 17 16 
3 22 16 20 
3 24 26 30 
3 31 30 28 
3 28 30 29 
3 32 33 27 
3 27 33 25 
3 23 21 25 
3 25 21 27 
3 32 27 34 
3 34 27 21 
3 35 23 33 
3 33 23 25 
3 33 32 35 
3 35 32 34 
3 35 34 23 
3 23 34 21 
