ply
format ascii 1.0
comment meshmixer generated
element vertex 16
property float x
property float y
property float z
property float nx
property float ny
property float nz
property uchar red
property uchar green
property uchar blue
property uchar alpha
element face 32
property list uchar int vertex_indices
end_header
-4817.432129 3539.866943 2770 1 0 0 255 255 255 255
-4817.432129 3539.866943 -150 1 0 0 255 255 255 255
-4817.432129 3663.866943 2770 1 0 0 255 255 255 255
-4817.432129 3663.866943 -150 1 0 0 255 255 255 255
-6249.432129 3663.866943 2135 0 0 -1 255 255 255 255
-5639.432129 3663.866943 2135 0 0 -1 255 255 255 255
-6249.432129 3539.866943 2135 0 0 -1 255 255 255 255
-5639.432129 3539.866943 2135 0 0 -1 255 255 255 255
-6249.432129 3539.866943 915 0 -1 0 255 255 255 255
-5639.432129 3539.866943 915 0 -1 0 255 255 255 255
-10229.43262 3539.866943 2770 0 -1 0 255 255 255 255
-10229.43262 3539.866943 -150 0 -1 0 255 255 255 255
-5639.432129 3663.866943 915 -1 0 0 255 255 255 255
-6249.432129 3663.866943 915 0 1 0 255 255 255 255
-10229.43262 3663.866943 -150 0 1 0 255 255 255 255
-10229.43262 3663.866943 2770 0 1 0 255 255 255 255
3 0 1 2 
3 2 1 3 
3 4 5 6 
3 6 5 7 
3 8 1 9 
3 9 1 0 
3 9 0 7 
3 7 0 6 
3 6 0 10 
3 6 10 8 
3 8 10 11 
3 8 11 1 
3 5 12 7 
3 7 12 9 
3 5 2 12 
3 12 2 3 
3 12 3 13 
3 13 3 14 
3 13 14 15 
3 5 4 2 
3 2 4 15 
3 15 4 13 
3 13 4 8 
3 8 4 6 
3 12 13 9 
3 9 13 8 
3 1 11 3 
3 3 11 14 
3 10 0 15 
3 15 0 2 
3 11 10 14 
3 14 10 15 
