ply
format ascii 1.0
comment meshmixer generated
element vertex 8
property float x
property float y
property float z
property float nx
property float ny
property float nz
property uchar red
property uchar green
property uchar blue
property uchar alpha
element face 12
property list uchar int vertex_indices
end_header
-8381.432617 12909.86719 -150 1 0 0 255 255 255 255
-8381.432617 12909.86719 0 1 0 0 255 255 255 255
-8381.432617 11571.86719 -150 1 0 0 255 255 255 255
-8381.432617 11571.86719 0 1 0 0 255 255 255 255
-10229.43262 11571.86719 0 0 0 1 255 255 255 255
-10229.43262 12909.86719 0 0 0 1 255 255 255 255
-10229.43262 11571.86719 -150 0 -1 0 255 255 255 255
-10229.43262 12909.86719 -150 0 1 0 255 255 255 255
3 0 1 2 
3 2 1 3 
3 4 3 5 
3 5 3 1 
3 2 3 6 
3 6 3 4 
3 7 5 0 
3 0 5 1 
3 7 0 6 
3 6 0 2 
3 6 4 7 
3 7 4 5 
