ply
format ascii 1.0
comment meshmixer generated
element vertex 70
property float x
property float y
property float z
property float nx
property float ny
property float nz
property uchar red
property uchar green
property uchar blue
property uchar alpha
element face 136
property list uchar int vertex_indices
end_header
-5361.432129 14657.86719 -150 1 0 0 255 255 255 255
-5361.432129 14657.86719 0 1 0 0 255 255 255 255
-5361.432129 12109.86719 -150 1 0 0 255 255 255 255
-5361.432129 12109.86719 0 1 0 0 255 255 255 255
-1779.432251 12109.86719 -150 0 1 0 255 255 255 255
-1779.432251 12109.86719 0 0 1 0 255 255 255 255
-623.432251 12109.86719 -150 0 1 0 255 255 255 255
-623.432251 12109.86719 0 0 1 0 255 255 255 255
-623.432251 7519.866699 -150 1 0 0 255 255 255 255
-623.432251 7519.866699 0 1 0 0 255 255 255 255
-1549.432251 7519.866699 -150 0 -1 0 255 255 255 255
-1549.432251 7519.866699 0 0 -1 0 255 255 255 255
-1549.432251 5611.866699 -150 1 0 0 255 255 255 255
-1549.432251 5611.866699 0 1 0 0 255 255 255 255
-3037.432373 5611.866699 -150 0 -1 0 255 255 255 255
-3037.432373 5611.866699 0 0 -1 0 255 255 255 255
-3037.432373 7519.866699 -150 -1 0 0 255 255 255 255
-3037.432373 7519.866699 0 -1 0 0 255 255 255 255
-5611.432129 7519.866699 -150 0 -1 0 255 255 255 255
-5611.432129 7519.866699 0 0 -1 0 255 255 255 255
-5611.432129 6869.866699 -150 1 0 0 255 255 255 255
-5611.432129 6869.866699 0 1 0 0 255 255 255 255
-5487.432129 6869.866699 -150 0 1 0 255 255 255 255
-5487.432129 6869.866699 0 0 1 0 255 255 255 255
-5487.432129 7319.866699 -150 -1 0 0 255 255 255 255
-5487.432129 7319.866699 0 -1 0 0 255 255 255 255
-3161.432373 7319.866699 -150 0 1 0 255 255 255 255
-3161.432373 7319.866699 0 0 1 0 255 255 255 255
-3161.432373 5611.866699 -150 1 0 0 255 255 255 255
-3161.432373 5611.866699 0 1 0 0 255 255 255 255
-5699.432129 5611.866699 -150 0 -1 0 255 255 255 255
-5699.432129 5611.866699 0 0 -1 0 255 255 255 255
-5699.432129 5529.866699 -150 1 0 0 255 255 255 255
-5699.432129 5529.866699 0 1 0 0 255 255 255 255
-6399.432129 5529.866699 -150 0 -1 0 255 255 255 255
-6399.432129 5529.866699 0 0 -1 0 255 255 255 255
-6399.432129 5611.866699 -150 -1 0 0 255 255 255 255
-6399.432129 5611.866699 0 -1 0 0 255 255 255 255
-6757.432129 5611.866699 -150 0 -1 0 255 255 255 255
-6757.432129 5611.866699 0 0 -1 0 255 255 255 255
-6757.432129 5689.866699 -150 -1 0 0 255 255 255 255
-6757.432129 5689.866699 0 -1 0 0 255 255 255 255
-6839.432129 5689.866699 -150 0 -1 0 255 255 255 255
-6839.432129 5689.866699 0 0 -1 0 255 255 255 255
-6839.432129 6399.866699 -150 -1 0 0 255 255 255 255
-6839.432129 6399.866699 0 -1 0 0 255 255 255 255
-6757.432129 6399.866699 -150 0 1 0 255 255 255 255
-6757.432129 6399.866699 0 0 1 0 255 255 255 255
-6757.432129 6689.866699 -150 -1 0 0 255 255 255 255
-6757.432129 6689.866699 0 -1 0 0 255 255 255 255
-6839.432129 6689.866699 -150 0 -1 0 255 255 255 255
-6839.432129 6689.866699 0 0 -1 0 255 255 255 255
-6839.432129 7399.866699 -150 -1 0 0 255 255 255 255
-6839.432129 7399.866699 0 -1 0 0 255 255 255 255
-6757.432129 7399.866699 -150 0 1 0 255 255 255 255
-6757.432129 7399.866699 0 0 1 0 255 255 255 255
-6757.432129 11571.86719 -150 -1 0 0 255 255 255 255
-6757.432129 11571.86719 0 -1 0 0 255 255 255 255
-8257.432617 11571.86719 -150 0 -1 0 255 255 255 255
-8257.432617 11571.86719 0 0 -1 0 255 255 255 255
-8257.432617 11649.86719 -150 -1 0 0 255 255 255 255
-8257.432617 11649.86719 0 -1 0 0 255 255 255 255
-8339.432617 11649.86719 -150 0 -1 0 255 255 255 255
-8339.432617 11649.86719 0 0 -1 0 255 255 255 255
-8339.432617 12359.86719 -150 -1 0 0 255 255 255 255
-8339.432617 12359.86719 0 -1 0 0 255 255 255 255
-8257.432617 14657.86719 0 0 0 1 255 255 255 255
-8257.432617 12359.86719 0 0 0 1 255 255 255 255
-8257.432617 14657.86719 -150 0 1 0 255 255 255 255
-8257.432617 12359.86719 -150 0 1 0 255 255 255 255
3 0 1 2 
3 2 1 3 
3 2 3 4 
3 4 3 5 
3 4 5 6 
3 6 5 7 
3 6 7 8 
3 8 7 9 
3 8 9 10 
3 10 9 11 
3 10 11 12 
3 12 11 13 
3 12 13 14 
3 14 13 15 
3 14 15 16 
3 16 15 17 
3 16 17 18 
3 18 17 19 
3 18 19 20 
3 20 19 21 
3 20 21 22 
3 22 21 23 
3 22 23 24 
3 24 23 25 
3 24 25 26 
3 26 25 27 
3 26 27 28 
3 28 27 29 
3 28 29 30 
3 30 29 31 
3 30 31 32 
3 32 31 33 
3 32 33 34 
3 34 33 35 
3 34 35 36 
3 36 35 37 
3 36 37 38 
3 38 37 39 
3 38 39 40 
3 40 39 41 
3 40 41 42 
3 42 41 43 
3 42 43 44 
3 44 43 45 
3 44 45 46 
3 46 45 47 
3 46 47 48 
3 48 47 49 
3 48 49 50 
3 50 49 51 
3 50 51 52 
3 52 51 53 
3 52 53 54 
3 54 53 55 
3 54 55 56 
3 56 55 57 
3 56 57 58 
3 58 57 59 
3 58 59 60 
3 60 59 61 
3 60 61 62 
3 62 61 63 
3 62 63 64 
3 64 63 65 
3 66 67 1 
3 1 67 57 
3 1 57 3 
3 3 57 19 
3 3 19 17 
3 65 63 67 
3 67 63 61 
3 67 61 57 
3 57 61 59 
3 57 55 19 
3 19 55 21 
3 21 55 49 
3 21 49 47 
3 53 51 55 
3 55 51 49 
3 45 41 47 
3 47 41 37 
3 47 37 21 
3 21 37 31 
3 21 31 23 
3 23 31 29 
3 23 29 27 
3 45 43 41 
3 41 39 37 
3 35 33 37 
3 37 33 31 
3 27 25 23 
3 15 13 17 
3 17 13 11 
3 17 11 5 
3 5 11 7 
3 7 11 9 
3 5 3 17 
3 68 66 0 
3 0 66 1 
3 64 65 69 
3 69 65 67 
3 68 0 69 
3 69 0 56 
3 69 56 60 
3 60 56 58 
3 0 2 56 
3 56 2 18 
3 56 18 54 
3 54 18 20 
3 54 20 48 
3 48 20 46 
3 46 20 36 
3 46 36 40 
3 40 36 38 
3 18 2 16 
3 16 2 4 
3 16 4 10 
3 10 4 6 
3 10 6 8 
3 12 14 10 
3 10 14 16 
3 36 20 30 
3 30 20 22 
3 30 22 28 
3 28 22 26 
3 26 22 24 
3 32 34 30 
3 30 34 36 
3 40 42 46 
3 46 42 44 
3 48 50 54 
3 54 50 52 
3 60 62 69 
3 69 62 64 
3 69 67 68 
3 68 67 66 
