ply
format ascii 1.0
comment meshmixer generated
element vertex 24
property float x
property float y
property float z
property float nx
property float ny
property float nz
property uchar red
property uchar green
property uchar blue
property uchar alpha
element face 52
property list uchar int vertex_indices
end_header
-6881.432129 6668.866699 0 0 1 0 255 255 255 255
-6881.432129 6668.866699 2032 0 1 0 255 255 255 255
-6757.432129 6668.866699 0 0 1 0 255 255 255 255
-6757.432129 6668.866699 2032 0 1 0 255 255 255 255
-6881.432129 7430.866699 2032 0 0 -1 255 255 255 255
-6757.432129 7430.866699 2032 0 0 -1 255 255 255 255
-6757.432129 7430.866699 0 0 0 1 255 255 255 255
-6881.432129 7430.866699 0 0 0 1 255 255 255 255
-6881.432129 5668.866699 0 0 1 0 255 255 255 255
-6881.432129 5668.866699 2032 0 1 0 255 255 255 255
-6757.432129 5668.866699 0 0 1 0 255 255 255 255
-6757.432129 5668.866699 2032 0 1 0 255 255 255 255
-6881.432129 11447.86719 -150 0 1 0 255 255 255 255
-6881.432129 11447.86719 2770 0 1 0 255 255 255 255
-6757.432129 11447.86719 -150 0 1 0 255 255 255 255
-6757.432129 11447.86719 2770 0 1 0 255 255 255 255
-6881.432129 5611.866699 -150 -1 0 0 255 255 255 255
-6881.432129 6430.866699 0 -1 0 0 255 255 255 255
-6881.432129 6430.866699 2032 -1 0 0 255 255 255 255
-6881.432129 5611.866699 2770 -1 0 0 255 255 255 255
-6757.432129 5611.866699 -150 0 0 -1 255 255 255 255
-6757.432129 5611.866699 2770 0 0 1 255 255 255 255
-6757.432129 6430.866699 0 1 0 0 255 255 255 255
-6757.432129 6430.866699 2032 1 0 0 255 255 255 255
3 0 1 2 
3 2 1 3 
3 4 5 1 
3 1 5 3 
3 6 7 2 
3 2 7 0 
3 8 9 10 
3 10 9 11 
3 12 13 14 
3 14 13 15 
3 9 8 16 
3 16 8 17 
3 16 17 0 
3 0 17 18 
3 0 18 1 
3 1 18 19 
3 1 19 4 
3 4 19 13 
3 4 13 12 
3 18 9 19 
3 19 9 16 
3 0 7 16 
3 16 7 12 
3 12 7 4 
3 12 14 16 
3 16 14 20 
3 19 21 13 
3 13 21 15 
3 10 20 22 
3 22 20 2 
3 22 2 3 
3 10 11 20 
3 20 11 21 
3 21 11 23 
3 21 23 3 
3 3 23 22 
3 2 20 6 
3 6 20 14 
3 6 14 5 
3 5 14 15 
3 5 15 21 
3 3 5 21 
3 19 16 21 
3 21 16 20 
3 8 10 17 
3 17 10 22 
3 18 23 9 
3 9 23 11 
3 22 23 17 
3 17 23 18 
3 6 5 7 
3 7 5 4 
