ply
format ascii 1.0
comment meshmixer generated
element vertex 16
property float x
property float y
property float z
property float nx
property float ny
property float nz
property uchar red
property uchar green
property uchar blue
property uchar alpha
element face 32
property list uchar int vertex_indices
end_header
-8481.432617 9768.867188 0 0 1 0 255 255 255 255
-8481.432617 9768.867188 2032 0 1 0 255 255 255 255
-8357.432617 9768.867188 0 0 1 0 255 255 255 255
-8357.432617 9768.867188 2032 0 1 0 255 255 255 255
-8357.432617 10530.86719 2032 0 0 -1 255 255 255 255
-8481.432617 10530.86719 2032 0 0 -1 255 255 255 255
-8357.432617 10530.86719 0 0 0 1 255 255 255 255
-8481.432617 10530.86719 0 0 0 1 255 255 255 255
-8481.432617 9711.867188 2770 0 -1 0 255 255 255 255
-8481.432617 9711.867188 -150 0 -1 0 255 255 255 255
-8357.432617 9711.867188 2770 0 -1 0 255 255 255 255
-8357.432617 9711.867188 -150 0 -1 0 255 255 255 255
-8357.432617 11447.86719 -150 1 0 0 255 255 255 255
-8357.432617 11447.86719 2770 1 0 0 255 255 255 255
-8481.432617 11447.86719 -150 0 0 -1 255 255 255 255
-8481.432617 11447.86719 2770 0 0 1 255 255 255 255
3 0 1 2 
3 2 1 3 
3 3 1 4 
3 4 1 5 
3 6 7 2 
3 2 7 0 
3 8 9 10 
3 10 9 11 
3 2 11 6 
3 6 11 12 
3 6 12 4 
3 4 12 13 
3 4 13 10 
3 2 3 11 
3 11 3 10 
3 10 3 4 
3 14 12 9 
3 9 12 11 
3 8 10 15 
3 15 10 13 
3 1 0 9 
3 9 0 7 
3 9 7 14 
3 14 7 5 
3 14 5 15 
3 15 5 8 
3 8 5 1 
3 8 1 9 
3 14 15 12 
3 12 15 13 
3 6 4 7 
3 7 4 5 
