ply
format ascii 1.0
comment meshmixer generated
element vertex 8
property float x
property float y
property float z
property float nx
property float ny
property float nz
property uchar red
property uchar green
property uchar blue
property uchar alpha
element face 12
property list uchar int vertex_indices
end_header
-4941.432129 3663.866943 -160 0 -1 0 255 255 255 255
-4941.432129 3663.866943 -10 0 -1 0 255 255 255 255
-6947.432129 3663.866943 -160 0 -1 0 255 255 255 255
-6947.432129 3663.866943 -10 0 -1 0 255 255 255 255
-4941.432129 5487.866699 -10 0 0 1 255 255 255 255
-6947.432129 5487.866699 -10 0 0 1 255 255 255 255
-6947.432129 5487.866699 -160 -1 0 0 255 255 255 255
-4941.432129 5487.866699 -160 1 0 0 255 255 255 255
3 0 1 2 
3 2 1 3 
3 4 5 1 
3 1 5 3 
3 2 3 6 
3 6 3 5 
3 7 4 0 
3 0 4 1 
3 0 2 7 
3 7 2 6 
3 6 5 7 
3 7 5 4 
