ply
format ascii 1.0
comment meshmixer generated
element vertex 8
property float x
property float y
property float z
property float nx
property float ny
property float nz
property uchar red
property uchar green
property uchar blue
property uchar alpha
element face 12
property list uchar int vertex_indices
end_header
-8381.432617 12919.86719 2770 1 0 0 255 255 255 255
-8381.432617 12919.86719 -150 1 0 0 255 255 255 255
-8381.432617 13043.86719 2770 1 0 0 255 255 255 255
-8381.432617 13043.86719 -150 1 0 0 255 255 255 255
-10229.43262 12919.86719 -150 0 -1 0 255 255 255 255
-10229.43262 12919.86719 2770 0 -1 0 255 255 255 255
-10229.43262 13043.86719 -150 0 0 -1 255 255 255 255
-10229.43262 13043.86719 2770 0 0 1 255 255 255 255
3 0 1 2 
3 2 1 3 
3 1 0 4 
3 4 0 5 
3 1 4 3 
3 3 4 6 
3 5 0 7 
3 7 0 2 
3 6 7 3 
3 3 7 2 
3 4 5 6 
3 6 5 7 
