ply
format ascii 1.0
comment meshmixer generated
element vertex 16
property float x
property float y
property float z
property float nx
property float ny
property float nz
property uchar red
property uchar green
property uchar blue
property uchar alpha
element face 32
property list uchar int vertex_indices
end_header
-499.4322815 12109.86719 2770 1 0 0 255 255 255 255
-499.4322815 12109.86719 -150 1 0 0 255 255 255 255
-499.4322815 12309.86719 2770 1 0 0 255 255 255 255
-499.4322815 12309.86719 -150 1 0 0 255 255 255 255
-3075.432373 12309.86719 2032 -1 0 0 255 255 255 255
-3075.432373 12309.86719 0 -1 0 0 255 255 255 255
-3075.432373 12109.86719 2032 -1 0 0 255 255 255 255
-3075.432373 12109.86719 0 -1 0 0 255 255 255 255
-3837.432373 12109.86719 0 0 -1 0 255 255 255 255
-5361.432129 12109.86719 -150 0 -1 0 255 255 255 255
-3837.432373 12109.86719 2032 0 -1 0 255 255 255 255
-5361.432129 12109.86719 2770 0 -1 0 255 255 255 255
-3837.432373 12309.86719 0 0 0 1 255 255 255 255
-3837.432373 12309.86719 2032 0 0 -1 255 255 255 255
-5361.432129 12309.86719 -150 0 1 0 255 255 255 255
-5361.432129 12309.86719 2770 0 1 0 255 255 255 255
3 0 1 2 
3 2 1 3 
3 4 5 6 
3 6 5 7 
3 7 8 9 
3 9 8 10 
3 9 10 11 
3 11 10 6 
3 11 6 0 
3 0 6 1 
3 1 6 7 
3 1 7 9 
3 5 12 7 
3 7 12 8 
3 13 4 10 
3 10 4 6 
3 13 12 14 
3 14 12 5 
3 14 5 3 
3 3 5 4 
3 3 4 2 
3 2 4 15 
3 15 4 13 
3 15 13 14 
3 12 13 8 
3 8 13 10 
3 11 0 15 
3 15 0 2 
3 1 9 3 
3 3 9 14 
3 9 11 14 
3 14 11 15 
