ply
format ascii 1.0
comment meshmixer generated
element vertex 12
property float x
property float y
property float z
property float nx
property float ny
property float nz
property uchar red
property uchar green
property uchar blue
property uchar alpha
element face 20
property list uchar int vertex_indices
end_header
-7071.432129 5611.866699 -150 1 0 0 255 255 255 255
-7071.432129 5611.866699 0 1 0 0 255 255 255 255
-7071.432129 3663.866943 -150 1 0 0 255 255 255 255
-7071.432129 3663.866943 0 1 0 0 255 255 255 255
-10229.43262 3663.866943 -150 0 -1 0 255 255 255 255
-10229.43262 3663.866943 0 0 -1 0 255 255 255 255
-10229.43262 6509.866699 -150 -1 0 0 255 255 255 255
-10229.43262 6509.866699 0 -1 0 0 255 255 255 255
-6881.432129 5611.866699 0 0 0 1 255 255 255 255
-6881.432129 6509.866699 0 0 0 1 255 255 255 255
-6881.432129 6509.866699 -150 0 1 0 255 255 255 255
-6881.432129 5611.866699 -150 0 -1 0 255 255 255 255
3 0 1 2 
3 2 1 3 
3 2 3 4 
3 4 3 5 
3 4 5 6 
3 6 5 7 
3 8 9 1 
3 1 9 7 
3 1 7 5 
3 5 3 1 
3 6 7 10 
3 10 7 9 
3 11 8 0 
3 0 8 1 
3 11 0 10 
3 10 0 6 
3 6 0 4 
3 4 0 2 
3 10 9 11 
3 11 9 8 
