ply
format ascii 1.0
comment meshmixer generated
element vertex 8
property float x
property float y
property float z
property float nx
property float ny
property float nz
property uchar red
property uchar green
property uchar blue
property uchar alpha
element face 12
property list uchar int vertex_indices
end_header
-10229.43262 9711.867188 -160 -1 0 0 255 255 255 255
-10229.43262 9711.867188 -10 -1 0 0 255 255 255 255
-10229.43262 11447.86719 -160 -1 0 0 255 255 255 255
-10229.43262 11447.86719 -10 -1 0 0 255 255 255 255
-8481.432617 11447.86719 -10 0 0 1 255 255 255 255
-8481.432617 9711.867188 -10 0 0 1 255 255 255 255
-8481.432617 11447.86719 -160 0 1 0 255 255 255 255
-8481.432617 9711.867188 -160 0 -1 0 255 255 255 255
3 0 1 2 
3 2 1 3 
3 4 3 5 
3 5 3 1 
3 2 3 6 
3 6 3 4 
3 7 5 0 
3 0 5 1 
3 7 0 6 
3 6 0 2 
3 6 4 7 
3 7 4 5 
