ply
format ascii 1.0
comment meshmixer generated
element vertex 24
property float x
property float y
property float z
property float nx
property float ny
property float nz
property uchar red
property uchar green
property uchar blue
property uchar alpha
element face 44
property list uchar int vertex_indices
end_header
-6881.432129 6611.866699 -150 0 -1 0 255 255 255 255
-6881.432129 6611.866699 0 0 -1 0 255 255 255 255
-10229.43262 6611.866699 -150 0 -1 0 255 255 255 255
-10229.43262 6611.866699 0 0 -1 0 255 255 255 255
-10229.43262 9587.867188 -150 -1 0 0 255 255 255 255
-10229.43262 9587.867188 0 -1 0 0 255 255 255 255
-8329.432617 9587.867188 -150 0 1 0 255 255 255 255
-8329.432617 9587.867188 0 0 1 0 255 255 255 255
-8329.432617 9711.867188 -150 -1 0 0 255 255 255 255
-8329.432617 9711.867188 0 -1 0 0 255 255 255 255
-8357.432617 9711.867188 -150 0 -1 0 255 255 255 255
-8357.432617 9711.867188 0 0 -1 0 255 255 255 255
-8357.432617 9829.867188 -150 -1 0 0 255 255 255 255
-8357.432617 9829.867188 0 -1 0 0 255 255 255 255
-8429.432617 9829.867188 -150 0 -1 0 255 255 255 255
-8429.432617 9829.867188 0 0 -1 0 255 255 255 255
-8429.432617 10429.86719 -150 -1 0 0 255 255 255 255
-8429.432617 10429.86719 0 -1 0 0 255 255 255 255
-8357.432617 10429.86719 -150 0 1 0 255 255 255 255
-8357.432617 10429.86719 0 0 1 0 255 255 255 255
-8357.432617 11447.86719 0 0 0 1 255 255 255 255
-6881.432129 11447.86719 0 0 0 1 255 255 255 255
-8357.432617 11447.86719 -150 -1 0 0 255 255 255 255
-6881.432129 11447.86719 -150 1 0 0 255 255 255 255
3 0 1 2 
3 2 1 3 
3 2 3 4 
3 4 3 5 
3 4 5 6 
3 6 5 7 
3 6 7 8 
3 8 7 9 
3 8 9 10 
3 10 9 11 
3 10 11 12 
3 12 11 13 
3 12 13 14 
3 14 13 15 
3 14 15 16 
3 16 15 17 
3 16 17 18 
3 18 17 19 
3 20 19 21 
3 21 19 9 
3 21 9 7 
3 9 19 13 
3 13 19 17 
3 13 17 15 
3 13 11 9 
3 5 3 7 
3 7 3 1 
3 7 1 21 
3 18 19 22 
3 22 19 20 
3 23 21 0 
3 0 21 1 
3 0 6 23 
3 23 6 8 
3 23 8 18 
3 18 8 12 
3 18 12 14 
3 0 2 6 
3 6 2 4 
3 8 10 12 
3 14 16 18 
3 18 22 23 
3 22 20 23 
3 23 20 21 
