ply
format ascii 1.0
comment meshmixer generated
element vertex 16
property float x
property float y
property float z
property float nx
property float ny
property float nz
property uchar red
property uchar green
property uchar blue
property uchar alpha
element face 32
property list uchar int vertex_indices
end_header
-5895.432129 5487.866699 0 -1 0 0 255 255 255 255
-5895.432129 5487.866699 2032 -1 0 0 255 255 255 255
-5895.432129 5611.866699 0 -1 0 0 255 255 255 255
-5895.432129 5611.866699 2032 -1 0 0 255 255 255 255
-6657.432129 5487.866699 2032 0 0 -1 255 255 255 255
-6657.432129 5611.866699 2032 0 0 -1 255 255 255 255
-6657.432129 5487.866699 0 0 0 1 255 255 255 255
-6657.432129 5611.866699 0 0 0 1 255 255 255 255
-7071.432129 5611.866699 2770 -1 0 0 255 255 255 255
-7071.432129 5611.866699 -150 -1 0 0 255 255 255 255
-7071.432129 5487.866699 2770 -1 0 0 255 255 255 255
-7071.432129 5487.866699 -150 -1 0 0 255 255 255 255
-1425.432251 5487.866699 -150 0 -1 0 255 255 255 255
-1425.432251 5487.866699 2770 0 -1 0 255 255 255 255
-1425.432251 5611.866699 -150 0 0 -1 255 255 255 255
-1425.432251 5611.866699 2770 0 0 1 255 255 255 255
3 0 1 2 
3 2 1 3 
3 1 4 3 
3 3 4 5 
3 6 0 7 
3 7 0 2 
3 8 9 10 
3 10 9 11 
3 6 11 0 
3 0 11 12 
3 0 12 1 
3 1 12 13 
3 1 13 10 
3 6 4 11 
3 11 4 10 
3 10 4 1 
3 9 14 11 
3 11 14 12 
3 15 8 13 
3 13 8 10 
3 5 7 9 
3 9 7 2 
3 9 2 14 
3 14 2 3 
3 14 3 15 
3 15 3 8 
3 8 3 5 
3 8 5 9 
3 14 15 12 
3 12 15 13 
3 7 5 6 
3 6 5 4 
