ply
format ascii 1.0
comment meshmixer generated
element vertex 32
property float x
property float y
property float z
property float nx
property float ny
property float nz
property uchar red
property uchar green
property uchar blue
property uchar alpha
element face 72
property list uchar int vertex_indices
end_header
-10229.43262 3539.866943 -150 0 -1 0 255 255 255 255
-10229.43262 3539.866943 2770 0 -1 0 255 255 255 255
-10353.43262 3539.866943 -150 0 -1 0 255 255 255 255
-10353.43262 3539.866943 2770 0 -1 0 255 255 255 255
-10353.43262 7794.866699 2135 0 0 -1 255 255 255 255
-10229.43262 7794.866699 2135 0 0 -1 255 255 255 255
-10353.43262 7184.866699 2135 0 0 -1 255 255 255 255
-10229.43262 7184.866699 2135 0 0 -1 255 255 255 255
-10229.43262 7184.866699 915 0 1 0 255 255 255 255
-10353.43262 7184.866699 915 0 1 0 255 255 255 255
-10353.43262 7794.866699 915 0 -1 0 255 255 255 255
-10229.43262 7794.866699 915 0 -1 0 255 255 255 255
-10229.43262 5277.866699 915 0 0 1 255 255 255 255
-10353.43262 5277.866699 915 0 0 1 255 255 255 255
-10229.43262 4667.866699 915 0 0 1 255 255 255 255
-10353.43262 4667.866699 915 0 0 1 255 255 255 255
-10353.43262 10521.86719 2135 0 0 -1 255 255 255 255
-10229.43262 10521.86719 2135 0 0 -1 255 255 255 255
-10353.43262 9911.867188 2135 0 0 -1 255 255 255 255
-10229.43262 9911.867188 2135 0 0 -1 255 255 255 255
-10229.43262 13043.86719 2770 1 0 0 255 255 255 255
-10229.43262 10521.86719 915 1 0 0 255 255 255 255
-10229.43262 13043.86719 -150 1 0 0 255 255 255 255
-10229.43262 9911.867188 915 1 0 0 255 255 255 255
-10229.43262 5277.866699 2135 1 0 0 255 255 255 255
-10229.43262 4667.866699 2135 1 0 0 255 255 255 255
-10353.43262 10521.86719 915 0 -1 0 255 255 255 255
-10353.43262 9911.867188 915 0 1 0 255 255 255 255
-10353.43262 13043.86719 2770 -1 0 0 255 255 255 255
-10353.43262 13043.86719 -150 -1 0 0 255 255 255 255
-10353.43262 5277.866699 2135 -1 0 0 255 255 255 255
-10353.43262 4667.866699 2135 -1 0 0 255 255 255 255
3 0 1 2 
3 2 1 3 
3 4 5 6 
3 6 5 7 
3 7 8 6 
3 6 8 9 
3 4 10 5 
3 5 10 11 
3 12 13 14 
3 14 13 15 
3 16 17 18 
3 18 17 19 
3 19 17 20 
3 20 17 21 
3 20 21 22 
3 22 21 23 
3 22 23 11 
3 11 23 19 
3 11 19 5 
3 5 19 20 
3 5 20 1 
3 12 7 24 
3 24 7 1 
3 24 1 25 
3 25 1 14 
3 14 1 0 
3 14 0 12 
3 12 0 8 
3 12 8 7 
3 22 11 0 
3 0 11 8 
3 7 5 1 
3 16 26 17 
3 17 26 21 
3 27 18 23 
3 23 18 19 
3 16 28 26 
3 26 28 29 
3 26 29 27 
3 27 29 10 
3 27 10 4 
3 16 18 28 
3 28 18 4 
3 28 4 3 
3 3 4 6 
3 3 6 30 
3 30 6 9 
3 30 9 13 
3 13 9 2 
3 13 2 15 
3 15 2 3 
3 15 3 31 
3 31 3 30 
3 18 27 4 
3 9 10 2 
3 2 10 29 
3 27 23 26 
3 26 23 21 
3 12 24 13 
3 13 24 30 
3 25 14 31 
3 31 14 15 
3 30 24 31 
3 31 24 25 
3 11 10 8 
3 8 10 9 
3 20 28 1 
3 1 28 3 
3 0 2 22 
3 22 2 29 
3 20 22 28 
3 28 22 29 
