ply
format ascii 1.0
comment meshmixer generated
element vertex 24
property float x
property float y
property float z
property float nx
property float ny
property float nz
property uchar red
property uchar green
property uchar blue
property uchar alpha
element face 40
property list uchar int vertex_indices
end_header
789.2979126 28.35068321 0 0 1 0 255 255 255 255
789.2979126 28.35068321 294.7600098 0 1 0 255 255 255 255
809.2979126 28.35068321 0 0 1 0 255 255 255 255
809.2979126 28.35068321 294.7600098 0 1 0 255 255 255 255
809.2979126 -11.64931774 0 1 0 0 255 255 255 255
809.2979126 -11.64931774 294.7600098 1 0 0 255 255 255 255
789.2979126 18.51068306 294.7600098 -1 0 0 255 255 255 255
789.2979126 18.51068306 0 -1 0 0 255 255 255 255
799.2979126 18.51068306 0 0 -1 0 255 255 255 255
799.2979126 18.51068306 294.7600098 0 -1 0 255 255 255 255
789.2979126 -11.64931774 0 -1 0 0 255 255 255 255
789.2979126 -11.64931774 294.7600098 -1 0 0 255 255 255 255
789.2979126 -1.809317231 0 -1 0 0 255 255 255 255
789.2979126 -1.809317231 294.7600098 -1 0 0 255 255 255 255
799.2979126 -1.809317231 0 0 0 -1 255 255 255 255
799.2979126 -1.809317231 294.7600098 0 0 1 255 255 255 255
789.2979126 28.35068321 310 0 0 -1 255 255 255 255
809.2979126 28.35068321 310 0 0 -1 255 255 255 255
789.2979126 -11.64931774 310 0 0 -1 255 255 255 255
809.2979126 -11.64931774 310 0 0 -1 255 255 255 255
789.2979126 28.35068321 584.3200073 -1 0 0 255 255 255 255
789.2979126 -11.64931774 584.3200073 -1 0 0 255 255 255 255
809.2979126 28.35068321 584.3200073 0 1 0 255 255 255 255
809.2979126 -11.64931774 584.3200073 1 0 0 255 255 255 255
3 0 1 2 
3 2 1 3 
3 2 3 4 
3 4 3 5 
3 1 0 6 
3 6 0 7 
3 8 9 7 
3 7 9 6 
3 10 11 12 
3 12 11 13 
3 7 0 8 
3 8 0 2 
3 8 2 4 
3 8 4 14 
3 14 4 10 
3 14 10 12 
3 4 5 10 
3 10 5 11 
3 5 3 9 
3 9 3 1 
3 9 1 6 
3 9 15 5 
3 5 15 11 
3 11 15 13 
3 15 14 13 
3 13 14 12 
3 14 15 8 
3 8 15 9 
3 16 17 18 
3 18 17 19 
3 20 16 21 
3 21 16 18 
3 22 17 20 
3 20 17 16 
3 23 19 22 
3 22 19 17 
3 21 18 23 
3 23 18 19 
3 21 23 20 
3 20 23 22 
