ply
format ascii 1.0
comment meshmixer generated
element vertex 18
property float x
property float y
property float z
property float nx
property float ny
property float nz
property uchar red
property uchar green
property uchar blue
property uchar alpha
element face 32
property list uchar int vertex_indices
end_header
399.2979126 208.3506775 310 0 -1 0 255 255 255 255
389.2979126 208.3506775 310 0 -1 0 255 255 255 255
399.2979126 208.3506775 294.7600098 0 -1 0 255 255 255 255
389.2979126 208.3506775 0 0 -1 0 255 255 255 255
409.2979126 208.3506775 0 0 -1 0 255 255 255 255
409.2979126 208.3506775 294.7600098 0 -1 0 255 255 255 255
399.2979126 228.3506775 294.7600098 1 0 0 255 255 255 255
399.2979126 228.3506775 310 1 0 0 255 255 255 255
409.2979126 228.3506775 310 0 0 -1 255 255 255 255
409.2979126 188.3506775 310 0 0 -1 255 255 255 255
389.2979126 188.3506775 310 0 0 -1 255 255 255 255
389.2979126 188.3506775 584.3200073 -1 0 0 255 255 255 255
389.2979126 228.3506775 584.3200073 -1 0 0 255 255 255 255
389.2979126 228.3506775 0 -1 0 0 255 255 255 255
409.2979126 228.3506775 0 0 0 -1 255 255 255 255
409.2979126 228.3506775 294.7600098 1 0 0 255 255 255 255
409.2979126 228.3506775 584.3200073 0 1 0 255 255 255 255
409.2979126 188.3506775 584.3200073 1 0 0 255 255 255 255
3 0 1 2 
3 2 1 3 
3 2 3 4 
3 4 5 2 
3 6 7 2 
3 2 7 0 
3 7 8 0 
3 0 8 9 
3 0 9 10 
3 10 1 0 
3 10 11 1 
3 1 11 12 
3 1 12 13 
3 13 3 1 
3 13 14 3 
3 3 14 4 
3 14 15 4 
3 4 15 5 
3 15 6 5 
3 5 6 2 
3 15 14 6 
3 6 14 13 
3 6 13 12 
3 6 12 7 
3 7 12 16 
3 7 16 8 
3 17 9 16 
3 16 9 8 
3 11 10 17 
3 17 10 9 
3 11 17 12 
3 12 17 16 
