ply
format ascii 1.0
comment meshmixer generated
element vertex 24
property float x
property float y
property float z
property float nx
property float ny
property float nz
property uchar red
property uchar green
property uchar blue
property uchar alpha
element face 44
property list uchar int vertex_indices
end_header
399.5899963 209.6206818 -0.965200007 1 0 0 255 255 255 255
399.5899963 209.6206818 -30.02280045 1 0 0 255 255 255 255
399.5899963 416.5929871 -0.965200007 1 0 0 255 255 255 255
399.5899963 416.5929871 -30.02280045 1 0 0 255 255 255 255
407.5402222 209.6206818 -0.965200007 0 0 -1 255 255 255 255
407.5402222 416.5929871 -0.965200007 0 0 -1 255 255 255 255
407.5402222 209.6206818 0 1 0 0 255 255 255 255
407.5402222 416.5929871 0 1 0 0 255 255 255 255
391.055603 209.6206818 0 0 0 1 255 255 255 255
391.055603 416.5929871 0 0 0 1 255 255 255 255
391.055603 209.6206818 -0.965200007 -1 0 0 255 255 255 255
391.055603 416.5929871 -0.965200007 -1 0 0 255 255 255 255
399.0057983 209.6206818 -0.965200007 0 0 -1 255 255 255 255
399.0057983 416.5929871 -0.965200007 0 0 -1 255 255 255 255
399.0057983 209.6206818 -30.02280045 -1 0 0 255 255 255 255
399.0057983 416.5929871 -30.02280045 -1 0 0 255 255 255 255
391.055603 209.6206818 -30.02280045 0 0 1 255 255 255 255
391.055603 416.5929871 -30.02280045 0 0 1 255 255 255 255
391.055603 209.6206818 -30.98800087 -1 0 0 255 255 255 255
391.055603 416.5929871 -30.98800087 -1 0 0 255 255 255 255
407.5402222 416.5929871 -30.02280045 0 1 0 255 255 255 255
407.5402222 416.5929871 -30.98800087 0 1 0 255 255 255 255
407.5402222 209.6206818 -30.02280045 0 0 1 255 255 255 255
407.5402222 209.6206818 -30.98800087 0 0 -1 255 255 255 255
3 0 1 2 
3 2 1 3 
3 4 0 5 
3 5 0 2 
3 6 4 7 
3 7 4 5 
3 8 6 9 
3 9 6 7 
3 10 8 11 
3 11 8 9 
3 12 10 13 
3 13 10 11 
3 14 12 15 
3 15 12 13 
3 16 14 17 
3 17 14 15 
3 18 16 19 
3 19 16 17 
3 20 21 3 
3 3 21 19 
3 3 19 15 
3 15 19 17 
3 15 13 3 
3 3 13 2 
3 2 13 9 
3 2 9 7 
3 13 11 9 
3 7 5 2 
3 1 22 3 
3 3 22 20 
3 23 18 21 
3 21 18 19 
3 22 1 23 
3 23 1 18 
3 18 1 14 
3 18 14 16 
3 1 0 14 
3 14 0 12 
3 12 0 8 
3 12 8 10 
3 4 6 0 
3 0 6 8 
3 22 23 20 
3 20 23 21 
