ply
format ascii 1.0
comment meshmixer generated
element vertex 16
property float x
property float y
property float z
property float nx
property float ny
property float nz
property uchar red
property uchar green
property uchar blue
property uchar alpha
element face 28
property list uchar int vertex_indices
end_header
379.2979126 398.3506775 0 -1 0 0 255 255 255 255
379.2979126 398.3506775 584.3200073 -1 0 0 255 255 255 255
379.2979126 418.3506775 0 -1 0 0 255 255 255 255
379.2979126 418.3506775 584.3200073 -1 0 0 255 255 255 255
399.2979126 418.3506775 294.7600098 1 0 0 255 255 255 255
399.2979126 418.3506775 310 1 0 0 255 255 255 255
399.2979126 398.3506775 294.7600098 1 0 0 255 255 255 255
399.2979126 398.3506775 310 1 0 0 255 255 255 255
419.2979126 398.3506775 294.7600098 0 0 1 255 255 255 255
419.2979126 418.3506775 294.7600098 0 0 1 255 255 255 255
419.2979126 398.3506775 0 0 -1 0 255 255 255 255
419.2979126 398.3506775 584.3200073 0 -1 0 255 255 255 255
419.2979126 398.3506775 310 0 -1 0 255 255 255 255
419.2979126 418.3506775 0 0 1 0 255 255 255 255
419.2979126 418.3506775 584.3200073 0 1 0 255 255 255 255
419.2979126 418.3506775 310 0 1 0 255 255 255 255
3 0 1 2 
3 2 1 3 
3 4 5 6 
3 6 5 7 
3 6 8 4 
3 4 8 9 
3 1 0 6 
3 6 0 10 
3 6 10 8 
3 6 7 1 
3 1 7 11 
3 11 7 12 
3 9 13 4 
3 4 13 2 
3 4 2 3 
3 4 3 5 
3 5 3 14 
3 5 14 15 
3 2 13 0 
3 0 13 10 
3 13 9 10 
3 10 9 8 
3 5 15 7 
3 7 15 12 
3 11 12 14 
3 14 12 15 
3 14 3 11 
3 11 3 1 
