ply
format ascii 1.0
comment meshmixer generated
element vertex 18
property float x
property float y
property float z
property float nx
property float ny
property float nz
property uchar red
property uchar green
property uchar blue
property uchar alpha
element face 32
property list uchar int vertex_indices
end_header
399.2979126 -1.809317231 310 0 1 0 255 255 255 255
399.2979126 -1.809317231 294.7600098 0 1 0 255 255 255 255
389.2979126 -1.809317231 310 0 1 0 255 255 255 255
389.2979126 -1.809317231 0 0 1 0 255 255 255 255
409.2979126 -1.809317231 0 0 1 0 255 255 255 255
409.2979126 -1.809317231 294.7600098 0 1 0 255 255 255 255
389.2979126 -11.64931774 0 -1 0 0 255 255 255 255
389.2979126 -11.64931774 584.3200073 -1 0 0 255 255 255 255
389.2979126 28.35068321 584.3200073 -1 0 0 255 255 255 255
389.2979126 28.35068321 310 -1 0 0 255 255 255 255
399.2979126 -11.64931774 310 1 0 0 255 255 255 255
399.2979126 -11.64931774 294.7600098 1 0 0 255 255 255 255
409.2979126 -11.64931774 310 0 0 -1 255 255 255 255
409.2979126 28.35068321 310 0 0 -1 255 255 255 255
409.2979126 -11.64931774 294.7600098 0 0 1 255 255 255 255
409.2979126 -11.64931774 0 1 0 0 255 255 255 255
409.2979126 -11.64931774 584.3200073 0 -1 0 255 255 255 255
409.2979126 28.35068321 584.3200073 1 0 0 255 255 255 255
3 0 1 2 
3 2 1 3 
3 3 1 4 
3 4 1 5 
3 6 7 2 
3 2 7 8 
3 2 8 9 
3 2 3 6 
3 10 11 0 
3 0 11 1 
3 10 0 12 
3 12 0 13 
3 13 0 9 
3 9 0 2 
3 11 14 1 
3 1 14 5 
3 14 15 5 
3 5 15 4 
3 15 6 4 
3 4 6 3 
3 7 6 11 
3 11 6 15 
3 11 15 14 
3 11 10 7 
3 7 10 16 
3 16 10 12 
3 16 12 17 
3 17 12 13 
3 17 13 8 
3 8 13 9 
3 7 16 8 
3 8 16 17 
