ply
format ascii 1.0
comment meshmixer generated
element vertex 16
property float x
property float y
property float z
property float nx
property float ny
property float nz
property uchar red
property uchar green
property uchar blue
property uchar alpha
element face 24
property list uchar int vertex_indices
end_header
1189.297852 28.35068321 0 0 1 0 255 255 255 255
1189.297852 28.35068321 294.7600098 0 1 0 255 255 255 255
1209.297852 28.35068321 0 0 1 0 255 255 255 255
1209.297852 28.35068321 294.7600098 0 1 0 255 255 255 255
1189.297852 -11.64931774 294.7600098 0 0 1 255 255 255 255
1209.297852 -11.64931774 294.7600098 0 0 1 255 255 255 255
1189.297852 -11.64931774 0 -1 0 0 255 255 255 255
1209.297852 -11.64931774 0 1 0 0 255 255 255 255
1189.297852 28.35068321 310 0 0 -1 255 255 255 255
1209.297852 28.35068321 310 0 0 -1 255 255 255 255
1189.297852 -11.64931774 310 0 0 -1 255 255 255 255
1209.297852 -11.64931774 310 0 0 -1 255 255 255 255
1189.297852 28.35068321 584.3200073 -1 0 0 255 255 255 255
1189.297852 -11.64931774 584.3200073 -1 0 0 255 255 255 255
1209.297852 28.35068321 584.3200073 0 1 0 255 255 255 255
1209.297852 -11.64931774 584.3200073 0 -1 0 255 255 255 255
3 0 1 2 
3 2 1 3 
3 4 5 1 
3 1 5 3 
3 6 4 0 
3 0 4 1 
3 2 3 7 
3 7 3 5 
3 0 2 6 
3 6 2 7 
3 7 5 6 
3 6 5 4 
3 8 9 10 
3 10 9 11 
3 12 8 13 
3 13 8 10 
3 14 9 12 
3 12 9 8 
3 13 10 15 
3 15 10 11 
3 15 11 14 
3 14 11 9 
3 13 15 12 
3 12 15 14 
