ply
format ascii 1.0
comment meshmixer generated
element vertex 24
property float x
property float y
property float z
property float nx
property float ny
property float nz
property uchar red
property uchar green
property uchar blue
property uchar alpha
element face 44
property list uchar int vertex_indices
end_header
1199.005859 207.0806885 -0.965200007 -1 0 0 255 255 255 255
1199.005859 207.0806885 -30.02280045 -1 0 0 255 255 255 255
1199.005859 0.1083827317 -0.965200007 -1 0 0 255 255 255 255
1199.005859 0.1083827317 -30.02280045 -1 0 0 255 255 255 255
1191.055664 207.0806885 -0.965200007 0 0 -1 255 255 255 255
1191.055664 0.1083827317 -0.965200007 0 0 -1 255 255 255 255
1191.055664 207.0806885 0 -1 0 0 255 255 255 255
1191.055664 0.1083827317 0 -1 0 0 255 255 255 255
1207.540161 207.0806885 0 0 0 1 255 255 255 255
1207.540161 0.1083827317 0 0 0 1 255 255 255 255
1207.540161 207.0806885 -0.965200007 1 0 0 255 255 255 255
1207.540161 0.1083827317 -0.965200007 1 0 0 255 255 255 255
1199.589966 207.0806885 -0.965200007 0 0 -1 255 255 255 255
1199.589966 0.1083827317 -0.965200007 0 0 -1 255 255 255 255
1199.589966 207.0806885 -30.02280045 1 0 0 255 255 255 255
1199.589966 0.1083827317 -30.02280045 1 0 0 255 255 255 255
1207.540161 207.0806885 -30.02280045 0 0 1 255 255 255 255
1207.540161 0.1083827317 -30.02280045 0 0 1 255 255 255 255
1207.540161 207.0806885 -30.98800087 1 0 0 255 255 255 255
1207.540161 0.1083827317 -30.98800087 1 0 0 255 255 255 255
1191.055664 0.1083827317 -30.02280045 0 -1 0 255 255 255 255
1191.055664 0.1083827317 -30.98800087 0 -1 0 255 255 255 255
1191.055664 207.0806885 -30.02280045 0 0 1 255 255 255 255
1191.055664 207.0806885 -30.98800087 0 0 -1 255 255 255 255
3 0 1 2 
3 2 1 3 
3 4 0 5 
3 5 0 2 
3 6 4 7 
3 7 4 5 
3 8 6 9 
3 9 6 7 
3 10 8 11 
3 11 8 9 
3 12 10 13 
3 13 10 11 
3 14 12 15 
3 15 12 13 
3 16 14 17 
3 17 14 15 
3 18 16 19 
3 19 16 17 
3 20 21 3 
3 3 21 15 
3 3 15 13 
3 21 19 15 
3 15 19 17 
3 11 9 13 
3 13 9 7 
3 13 7 2 
3 2 7 5 
3 2 3 13 
3 1 22 3 
3 3 22 20 
3 23 18 21 
3 21 18 19 
3 22 1 23 
3 23 1 14 
3 23 14 18 
3 18 14 16 
3 1 0 14 
3 14 0 12 
3 12 0 6 
3 12 6 8 
3 0 4 6 
3 8 10 12 
3 22 23 20 
3 20 23 21 
