ply
format ascii 1.0
comment meshmixer generated
element vertex 16
property float x
property float y
property float z
property float nx
property float ny
property float nz
property uchar red
property uchar green
property uchar blue
property uchar alpha
element face 28
property list uchar int vertex_indices
end_header
789.2979126 428.3506775 0 0 1 0 255 255 255 255
789.2979126 428.3506775 584.3200073 0 1 0 255 255 255 255
809.2979126 428.3506775 0 0 1 0 255 255 255 255
809.2979126 428.3506775 584.3200073 0 1 0 255 255 255 255
809.2979126 418.3506775 294.7600098 0 -1 0 255 255 255 255
809.2979126 418.3506775 310 0 -1 0 255 255 255 255
789.2979126 418.3506775 294.7600098 0 -1 0 255 255 255 255
789.2979126 418.3506775 310 0 -1 0 255 255 255 255
809.2979126 388.3506775 294.7600098 0 0 1 255 255 255 255
789.2979126 388.3506775 294.7600098 0 0 1 255 255 255 255
809.2979126 388.3506775 0 1 0 0 255 255 255 255
809.2979126 388.3506775 584.3200073 1 0 0 255 255 255 255
809.2979126 388.3506775 310 1 0 0 255 255 255 255
789.2979126 388.3506775 0 -1 0 0 255 255 255 255
789.2979126 388.3506775 584.3200073 -1 0 0 255 255 255 255
789.2979126 388.3506775 310 -1 0 0 255 255 255 255
3 0 1 2 
3 2 1 3 
3 4 5 6 
3 6 5 7 
3 4 6 8 
3 8 6 9 
3 8 10 4 
3 4 10 2 
3 4 2 3 
3 4 3 5 
3 5 3 11 
3 5 11 12 
3 1 0 6 
3 6 0 13 
3 6 13 9 
3 6 7 1 
3 1 7 14 
3 14 7 15 
3 0 2 13 
3 13 2 10 
3 10 8 13 
3 13 8 9 
3 7 5 15 
3 15 5 12 
3 14 15 11 
3 11 15 12 
3 14 11 1 
3 1 11 3 
