ply
format ascii 1.0
comment meshmixer generated
element vertex 8
property float x
property float y
property float z
property float nx
property float ny
property float nz
property uchar red
property uchar green
property uchar blue
property uchar alpha
element face 12
property list uchar int vertex_indices
end_header
399.2979126 418.3506775 294.7600098 0 1 0 255 255 255 255
399.2979126 418.3506775 310 0 1 0 255 255 255 255
1209.297852 418.3506775 294.7600098 0 1 0 255 255 255 255
1209.297852 418.3506775 310 0 1 0 255 255 255 255
399.2979126 -11.64931774 310 0 0 1 255 255 255 255
1209.297852 -11.64931774 310 0 0 1 255 255 255 255
1209.297852 -11.64931774 294.7600098 1 0 0 255 255 255 255
399.2979126 -11.64931774 294.7600098 -1 0 0 255 255 255 255
3 0 1 2 
3 2 1 3 
3 4 5 1 
3 1 5 3 
3 2 3 6 
3 6 3 5 
3 7 4 0 
3 0 4 1 
3 0 2 7 
3 7 2 6 
3 6 5 7 
3 7 5 4 
