ply
format ascii 1.0
comment meshmixer generated
element vertex 24
property float x
property float y
property float z
property float nx
property float ny
property float nz
property uchar red
property uchar green
property uchar blue
property uchar alpha
element face 44
property list uchar int vertex_indices
end_header
800.5679321 408.0585938 -0.965200007 0 -1 0 255 255 255 255
800.5679321 408.0585938 -30.02280045 0 -1 0 255 255 255 255
1189.785645 408.0585938 -0.965200007 0 -1 0 255 255 255 255
1189.785645 408.0585938 -30.02280045 0 -1 0 255 255 255 255
800.5679321 400.1083679 -0.965200007 0 0 -1 255 255 255 255
1189.785645 400.1083679 -0.965200007 0 0 -1 255 255 255 255
800.5679321 400.1083679 0 0 -1 0 255 255 255 255
1189.785645 400.1083679 0 0 -1 0 255 255 255 255
800.5679321 416.5929871 0 0 0 1 255 255 255 255
1189.785645 416.5929871 0 0 0 1 255 255 255 255
800.5679321 416.5929871 -0.965200007 0 1 0 255 255 255 255
1189.785645 416.5929871 -0.965200007 0 1 0 255 255 255 255
800.5679321 408.6427917 -0.965200007 0 0 -1 255 255 255 255
1189.785645 408.6427917 -0.965200007 0 0 -1 255 255 255 255
800.5679321 408.6427917 -30.02280045 0 1 0 255 255 255 255
1189.785645 408.6427917 -30.02280045 0 1 0 255 255 255 255
800.5679321 416.5929871 -30.02280045 0 0 1 255 255 255 255
1189.785645 416.5929871 -30.02280045 0 0 1 255 255 255 255
800.5679321 416.5929871 -30.98800087 0 1 0 255 255 255 255
1189.785645 416.5929871 -30.98800087 0 1 0 255 255 255 255
1189.785645 400.1083679 -30.02280045 1 0 0 255 255 255 255
1189.785645 400.1083679 -30.98800087 1 0 0 255 255 255 255
800.5679321 400.1083679 -30.02280045 0 0 1 255 255 255 255
800.5679321 400.1083679 -30.98800087 0 0 -1 255 255 255 255
3 0 1 2 
3 2 1 3 
3 0 2 4 
3 4 2 5 
3 6 4 7 
3 7 4 5 
3 6 7 8 
3 8 7 9 
3 10 8 11 
3 11 8 9 
3 10 11 12 
3 12 11 13 
3 14 12 15 
3 15 12 13 
3 14 15 16 
3 16 15 17 
3 18 16 19 
3 19 16 17 
3 20 21 3 
3 3 21 15 
3 3 15 13 
3 21 19 15 
3 15 19 17 
3 11 9 13 
3 13 9 7 
3 13 7 2 
3 2 7 5 
3 2 3 13 
3 22 20 1 
3 1 20 3 
3 18 19 23 
3 23 19 21 
3 22 1 23 
3 23 1 14 
3 23 14 18 
3 18 14 16 
3 1 0 14 
3 14 0 12 
3 12 0 6 
3 12 6 8 
3 0 4 6 
3 8 10 12 
3 22 23 20 
3 20 23 21 
