ply
format ascii 1.0
comment meshmixer generated
element vertex 8
property float x
property float y
property float z
property float nx
property float ny
property float nz
property uchar red
property uchar green
property uchar blue
property uchar alpha
element face 12
property list uchar int vertex_indices
end_header
799.2979126 -1.809317231 310 1 0 0 255 255 255 255
799.2979126 -1.809317231 0 1 0 0 255 255 255 255
799.2979126 18.51068306 310 1 0 0 255 255 255 255
799.2979126 18.51068306 0 1 0 0 255 255 255 255
409.4579163 18.51068306 0 0 1 0 255 255 255 255
409.4579163 18.51068306 310 0 1 0 255 255 255 255
409.4579163 -1.809317231 310 0 0 1 255 255 255 255
409.4579163 -1.809317231 0 0 0 -1 255 255 255 255
3 0 1 2 
3 2 1 3 
3 4 5 3 
3 3 5 2 
3 6 0 5 
3 5 0 2 
3 1 7 3 
3 3 7 4 
3 1 0 7 
3 7 0 6 
3 7 6 4 
3 4 6 5 
